<svg width="118" height="118" viewBox="0 0 118 118" fill="none" xmlns="http://www.w3.org/2000/svg">
<g filter="url(#filter0_d_1_2627)">
<circle cx="59.8891" cy="54.5512" r="54.5512" fill="white"/>
<circle cx="59.8891" cy="54.5512" r="53.5512" stroke="#2A5F9E" stroke-width="2"/>
</g>
<path d="M96.1931 37.2943L88.2756 30.7623C87.7376 30.3925 87.1526 30.1076 86.5387 29.9163C85.9273 29.7045 85.2909 29.5867 84.6486 29.5665H61.8595L64.5298 47.4135H84.6486C85.1953 47.4135 85.8787 47.2815 86.5354 47.0637C87.1922 46.846 87.8256 46.5462 88.2723 46.2214L96.1898 39.6822C96.6398 39.3574 96.8632 38.9255 96.8632 38.49C96.8632 38.0546 96.6398 37.6227 96.1931 37.2943ZM58.5258 22.4277H55.1921C54.75 22.4277 54.3261 22.6158 54.0135 22.9505C53.7009 23.2852 53.5253 23.7391 53.5253 24.2124V36.7053H42.4041C41.8507 36.7053 41.1706 36.8374 40.5139 37.0587C39.8538 37.2729 39.2237 37.5691 38.777 37.9011L30.8595 44.4331C30.4095 44.7579 30.1895 45.1934 30.1895 45.6288C30.1895 46.0607 30.4095 46.4926 30.8595 46.8246L38.777 53.3637C39.2237 53.6885 39.8538 53.9884 40.5139 54.2025C41.1706 54.4203 41.8507 54.5523 42.4041 54.5523H53.5253V84.8923C53.5253 85.3656 53.7009 85.8195 54.0135 86.1542C54.3261 86.4889 54.75 86.677 55.1921 86.677H58.5258C58.9679 86.677 59.3918 86.4889 59.7044 86.1542C60.017 85.8195 60.1926 85.3656 60.1926 84.8923V24.2124C60.1926 23.7391 60.017 23.2852 59.7044 22.9505C59.3918 22.6158 58.9679 22.4277 58.5258 22.4277Z" fill="#C31162"/>
<defs>
<filter id="filter0_d_1_2627" x="0.337891" y="0" width="117.102" height="117.103" filterUnits="userSpaceOnUse" color-interpolation-filters="sRGB">
<feFlood flood-opacity="0" result="BackgroundImageFix"/>
<feColorMatrix in="SourceAlpha" type="matrix" values="0 0 0 0 0 0 0 0 0 0 0 0 0 0 0 0 0 0 127 0" result="hardAlpha"/>
<feOffset dx="-1" dy="4"/>
<feGaussianBlur stdDeviation="2"/>
<feComposite in2="hardAlpha" operator="out"/>
<feColorMatrix type="matrix" values="0 0 0 0 0 0 0 0 0 0 0 0 0 0 0 0 0 0 0.25 0"/>
<feBlend mode="normal" in2="BackgroundImageFix" result="effect1_dropShadow_1_2627"/>
<feBlend mode="normal" in="SourceGraphic" in2="effect1_dropShadow_1_2627" result="shape"/>
</filter>
</defs>
</svg>
