<svg width="160" height="45" viewBox="0 0 160 45" fill="none" xmlns="http://www.w3.org/2000/svg">
<path d="M158.939 39.6869C158.939 40.2532 158.821 40.814 158.592 41.3372C158.364 41.8604 158.029 42.3358 157.607 42.736C157.184 43.1363 156.683 43.4537 156.132 43.67C155.58 43.8863 154.989 43.9974 154.392 43.9968H5.60775C4.40184 43.998 3.24481 43.5446 2.39111 42.7364C1.5374 41.9281 1.05693 40.8312 1.05536 39.6869V5.31654C1.05693 4.17166 1.53721 3.07416 2.39074 2.26503C3.24428 1.4559 4.4013 1.00127 5.60775 1.00098H154.391C154.988 1.00098 155.579 1.11261 156.131 1.3295C156.683 1.54639 157.184 1.86429 157.606 2.26504C158.028 2.6658 158.363 3.14155 158.592 3.66513C158.82 4.18871 158.938 4.74986 158.937 5.31654L158.939 39.6869Z" fill="white"/>
<path d="M154.392 45H5.60777C4.12224 44.9997 2.6975 44.4402 1.64617 43.4442C0.594854 42.4482 0.00282657 41.0971 0 39.6874L0 5.31821C0.00219764 3.90779 0.593834 2.55578 1.64512 1.55878C2.69641 0.561775 4.1215 0.00119045 5.60777 0L154.391 0C155.877 0.00178446 157.302 0.56256 158.353 1.55944C159.404 2.55631 159.996 3.90797 159.999 5.31821V39.6874C160.001 42.6177 157.481 45 154.392 45Z" fill="#A6A6A6"/>
<path d="M158.939 39.6869C158.939 40.2532 158.821 40.814 158.592 41.3372C158.364 41.8604 158.029 42.3358 157.607 42.736C157.184 43.1363 156.683 43.4537 156.132 43.67C155.58 43.8863 154.989 43.9974 154.392 43.9968H5.60775C4.40184 43.998 3.24481 43.5446 2.39111 42.7364C1.5374 41.9281 1.05693 40.8312 1.05536 39.6869V5.31654C1.05693 4.17166 1.53721 3.07416 2.39074 2.26503C3.24428 1.4559 4.4013 1.00127 5.60775 1.00098H154.391C154.988 1.00098 155.579 1.11261 156.131 1.3295C156.683 1.54639 157.184 1.86429 157.606 2.26504C158.028 2.6658 158.363 3.14155 158.592 3.66513C158.82 4.18871 158.938 4.74986 158.937 5.31654L158.939 39.6869Z" fill="black"/>
<path d="M35.7266 22.2632C35.6922 18.6363 38.856 16.8718 39.0007 16.7897C37.2089 14.3106 34.4317 13.9719 33.4557 13.9449C31.1232 13.7119 28.8607 15.2694 27.6725 15.2694C26.4606 15.2694 24.6308 13.9674 22.6588 14.0056C20.1211 14.0428 17.7471 15.437 16.4451 17.6021C13.758 22.0167 15.762 28.5041 18.3365 32.0725C19.6243 33.8212 21.1291 35.7714 23.0987 35.7027C25.0257 35.6285 25.7455 34.538 28.0709 34.538C30.375 34.538 31.0509 35.7027 33.0597 35.6589C35.1278 35.6285 36.4298 33.9034 37.6725 32.14C39.1608 30.1381 39.7584 28.1643 39.7821 28.063C39.7347 28.0473 35.7669 26.6091 35.7266 22.2632ZM31.932 11.5975C32.9684 10.3675 33.6775 8.69419 33.4806 6.99609C31.9806 7.05911 30.1046 7.98074 29.0243 9.1837C28.0685 10.2437 27.2147 11.9812 27.4353 13.6152C29.1204 13.7344 30.8505 12.8083 31.932 11.5975Z" fill="white"/>
<path d="M154.392 0H74.6987L105.913 45H154.392C155.878 44.9988 157.303 44.4385 158.354 43.442C159.405 42.4455 159.997 41.0941 160 39.684V5.31821C159.997 3.90788 159.406 2.55605 158.354 1.55911C157.303 0.562168 155.878 0.00148757 154.392 0V0Z" fill="url(#paint0_linear_309_7671)"/>
<path d="M63.6374 35.4502H60.9444L59.4692 31.0514H54.3417L52.9365 35.4502H50.3146L55.3959 20.4746H58.5336L63.6374 35.4502ZM59.0245 29.2059L57.6905 25.2954C57.5494 24.896 57.2837 23.9552 56.8948 22.4743H56.8474C56.6908 23.1112 56.4406 24.052 56.0979 25.2954L54.7864 29.2059H59.0245ZM76.6791 29.9182C76.6791 31.7547 76.1538 33.2064 75.102 34.272C74.1604 35.2207 72.99 35.6944 71.5943 35.6944C70.0871 35.6944 69.0033 35.1847 68.3451 34.1629V39.8288H65.8169V28.201C65.8169 27.0475 65.7849 25.8648 65.7233 24.6518H67.9467L68.0878 26.3634H68.1352C68.9784 25.0738 70.2579 24.429 71.9749 24.429C73.3173 24.429 74.4379 24.932 75.3344 25.9391C76.2297 26.9485 76.6791 28.2741 76.6791 29.9182ZM74.1035 30.006C74.1035 28.9549 73.8545 28.0885 73.3541 27.4054C72.8074 26.6953 72.0734 26.3397 71.1532 26.3397C70.5294 26.3397 69.9626 26.5378 69.4562 26.9283C68.9487 27.3221 68.6167 27.8364 68.4613 28.4733C68.392 28.7115 68.3526 28.9567 68.3439 29.2036V31.0053C68.3439 31.7896 68.5977 32.4524 69.1052 32.9948C69.6128 33.535 70.2721 33.8062 71.0832 33.8062C72.0354 33.8062 72.7766 33.4562 73.3066 32.7619C73.8379 32.0653 74.1035 31.1471 74.1035 30.006ZM89.7671 29.9182C89.7671 31.7547 89.2418 33.2064 88.1899 34.272C87.2472 35.2207 86.078 35.6944 84.6811 35.6944C83.1739 35.6944 82.09 35.1847 81.4319 34.1629V39.8288H78.9037V28.201C78.9037 27.0475 78.8717 25.8648 78.81 24.6518H81.0335L81.1746 26.3634H81.222C82.064 25.0738 83.3435 24.429 85.0617 24.429C86.4029 24.429 87.5235 24.932 88.4224 25.9391C89.3165 26.9485 89.7671 28.2741 89.7671 29.9182ZM87.1903 30.006C87.1903 28.9549 86.9401 28.0885 86.4396 27.4054C85.893 26.6953 85.1613 26.3397 84.2411 26.3397C83.6174 26.3397 83.0506 26.5378 82.5418 26.9283C82.0343 27.3221 81.7035 27.8364 81.5481 28.4733C81.471 28.7704 81.4295 29.0123 81.4295 29.2036V31.0053C81.4295 31.7896 81.6845 32.4524 82.1896 32.9948C82.6972 33.5338 83.3565 33.8062 84.17 33.8062C85.1234 33.8062 85.8645 33.4562 86.3934 32.7619C86.9247 32.0653 87.1903 31.1471 87.1903 30.006ZM104.4 31.2495C104.4 32.5244 103.931 33.5608 102.997 34.3609C101.97 35.2342 100.537 35.6719 98.6987 35.6719C97.0006 35.6719 95.6393 35.3613 94.6124 34.739L95.197 32.7394C96.3057 33.3628 97.5236 33.6734 98.8493 33.6734C99.8027 33.6734 100.544 33.4686 101.073 33.0623C101.603 32.655 101.871 32.1103 101.871 31.4306C101.871 30.8218 101.649 30.3121 101.214 29.8968C100.776 29.4827 100.053 29.0967 99.0367 28.7423C96.2737 27.7644 94.891 26.3341 94.891 24.4526C94.891 23.2237 95.3796 22.2177 96.3543 21.4311C97.3291 20.6457 98.6216 20.2529 100.23 20.2529C101.666 20.2529 102.862 20.4904 103.812 20.9641L103.178 22.9199C102.283 22.4608 101.274 22.2312 100.145 22.2312C99.2537 22.2312 98.5541 22.4394 98.0536 22.8535C97.6327 23.2237 97.4192 23.675 97.4192 24.2106C97.4192 24.8014 97.6623 25.2921 98.1461 25.6769C98.5659 26.0314 99.3319 26.4174 100.44 26.8315C101.798 27.3514 102.797 27.9568 103.436 28.6522C104.08 29.3477 104.4 30.2153 104.4 31.2495ZM112.78 26.4523H109.994V31.6951C109.994 33.0286 110.485 33.6936 111.469 33.6936C111.921 33.6936 112.295 33.6576 112.592 33.5822L112.662 35.4041C112.164 35.5808 111.508 35.6697 110.696 35.6697C109.697 35.6697 108.917 35.3805 108.354 34.8021C107.793 34.2236 107.511 33.2548 107.511 31.8909V26.4478H105.85V24.6473H107.511V22.6701L109.994 21.9589V24.6473H112.78V26.4523ZM125.329 29.9621C125.329 31.6219 124.828 32.9847 123.83 34.0503C122.785 35.1475 121.395 35.6944 119.663 35.6944C117.991 35.6944 116.662 35.1689 115.67 34.119C114.679 33.0668 114.183 31.7412 114.183 30.1421C114.183 28.4688 114.696 27.0982 115.717 26.0325C116.74 24.9657 118.118 24.4323 119.85 24.4323C121.52 24.4323 122.861 24.959 123.876 26.01C124.846 27.0295 125.329 28.3462 125.329 29.9621ZM122.708 30.0172C122.708 29.0281 122.483 28.1796 122.031 27.4695C121.501 26.6121 120.742 26.1833 119.759 26.1833C118.746 26.1833 117.97 26.6121 117.441 27.4695C116.988 28.1796 116.762 29.0427 116.762 30.0623C116.762 31.0525 116.988 31.9033 117.441 32.6111C117.987 33.4686 118.75 33.8973 119.738 33.8973C120.704 33.8973 121.462 33.4596 122.01 32.5897C122.475 31.8627 122.708 31.0086 122.708 30.0172ZM133.55 26.7617C133.287 26.7167 133.02 26.6944 132.753 26.6953C131.864 26.6953 131.176 27.0127 130.692 27.6518C130.273 28.2145 130.061 28.9257 130.061 29.7843V35.4502H127.533V28.0524C127.536 26.9189 127.511 25.7854 127.46 24.6529H129.662L129.754 26.719H129.824C130.092 26.0089 130.512 25.4361 131.088 25.0074C131.616 24.6327 132.257 24.4298 132.916 24.429C133.149 24.429 133.36 24.4447 133.548 24.4728L133.55 26.7617ZM144.857 29.5401C144.863 29.9048 144.832 30.2693 144.765 30.6283H137.18C137.208 31.6951 137.576 32.512 138.28 33.0747C138.92 33.5766 139.746 33.8287 140.761 33.8287C141.884 33.8287 142.909 33.6599 143.83 33.3189L144.226 34.9832C143.149 35.4289 141.878 35.6505 140.411 35.6505C138.647 35.6505 137.262 35.1577 136.254 34.1741C135.248 33.1895 134.744 31.8661 134.744 30.2085C134.744 28.5813 135.213 27.2253 136.151 26.1439C137.133 24.9894 138.459 24.4121 140.129 24.4121C141.769 24.4121 143.011 24.9894 143.854 26.1439C144.521 27.0588 144.857 28.1931 144.857 29.5401ZM142.446 28.9178C142.464 28.2055 142.298 27.5922 141.955 27.0734C141.518 26.405 140.844 26.0719 139.942 26.0719C139.115 26.0719 138.442 26.3971 137.929 27.0498C137.508 27.5686 137.258 28.192 137.181 28.9156L142.446 28.9178Z" fill="white"/>
<path d="M53.6124 15.1814C52.9092 15.1814 52.3009 15.1488 51.7946 15.0936V7.85341C52.5027 7.74959 53.2184 7.69842 53.935 7.70036C56.8343 7.70036 58.1696 9.05411 58.1696 11.2608C58.1696 13.8063 56.5924 15.1814 53.6124 15.1814ZM54.037 8.62874C53.6456 8.62874 53.3124 8.65125 53.0361 8.70526V14.2092C53.1855 14.2317 53.4725 14.2418 53.8757 14.2418C55.7754 14.2418 56.8568 13.2155 56.8568 11.2935C56.8568 9.57963 55.8785 8.62874 54.037 8.62874ZM62.3306 15.2366C60.6966 15.2366 59.6376 14.0786 59.6376 12.5066C59.6376 10.8681 60.7191 9.70004 62.4231 9.70004C64.0335 9.70004 65.1161 10.8028 65.1161 12.4199C65.1161 14.0786 64.0003 15.2366 62.3306 15.2366ZM62.3781 10.562C61.4804 10.562 60.9053 11.3587 60.9053 12.4728C60.9053 13.5655 61.4922 14.3622 62.3662 14.3622C63.2401 14.3622 63.8271 13.5103 63.8271 12.4503C63.8271 11.37 63.252 10.562 62.3781 10.562ZM74.4344 9.80919L72.6853 15.1162H71.5457L70.8211 12.8115C70.641 12.2478 70.491 11.6758 70.3717 11.0977H70.348C70.2567 11.6761 70.0836 12.2556 69.8997 12.8115L69.129 15.1162H67.9775L66.3316 9.80919H67.6087L68.242 12.3321C68.3914 12.9331 68.5171 13.5002 68.6214 14.0359H68.6451C68.7365 13.5891 68.8859 13.031 69.1052 12.3434L69.8997 9.81032H70.9124L71.6726 12.2894C71.8564 12.8903 72.0058 13.48 72.122 14.037H72.1552C72.2358 13.4912 72.3627 12.9117 72.5347 12.2894L73.2141 9.81032L74.4344 9.80919ZM80.8734 15.1162H79.6306V12.0688C79.6306 11.1303 79.2512 10.6599 78.5029 10.6599C77.7665 10.6599 77.2602 11.2608 77.2602 11.9597V15.1162H76.0174V11.3261C76.0174 10.8569 76.0056 10.3538 75.9712 9.80807H77.0645L77.1226 10.6273H77.157C77.4914 10.0601 78.1697 9.70004 78.9298 9.70004C80.1038 9.70004 80.8746 10.5519 80.8746 11.9383L80.8734 15.1162ZM84.3004 15.1162H83.0565V7.37402H84.3004V15.1162ZM88.8315 15.2366C87.1986 15.2366 86.1385 14.0786 86.1385 12.5066C86.1385 10.8681 87.2199 9.70004 88.9228 9.70004C90.5343 9.70004 91.6158 10.8028 91.6158 12.4199C91.617 14.0786 90.4999 15.2366 88.8315 15.2366ZM88.8777 10.562C87.98 10.562 87.4049 11.3587 87.4049 12.4728C87.4049 13.5655 87.9931 14.3622 88.8647 14.3622C89.7398 14.3622 90.3256 13.5103 90.3256 12.4503C90.3268 11.37 89.7528 10.562 88.8777 10.562ZM96.5156 15.1162L96.4255 14.5051H96.3923C96.0128 14.9969 95.459 15.2366 94.757 15.2366C93.755 15.2366 93.0435 14.5704 93.0435 13.6746C93.0435 12.3648 94.24 11.6873 96.3117 11.6873V11.5894C96.3117 10.8906 95.9215 10.5406 95.1507 10.5406C94.5993 10.5406 94.1155 10.6723 93.6898 10.9345L93.4372 10.1592C93.9542 9.85308 94.5993 9.70004 95.3571 9.70004C96.818 9.70004 97.5556 10.4315 97.5556 11.8955V13.8502C97.5556 14.3858 97.5805 14.8011 97.6362 15.1173L96.5156 15.1162ZM96.3449 12.4728C94.9646 12.4728 94.272 12.7901 94.272 13.543C94.272 14.1 94.629 14.3723 95.1246 14.3723C95.7567 14.3723 96.3449 13.9143 96.3449 13.292V12.4728ZM103.59 15.1162L103.532 14.2643H103.498C103.141 14.908 102.541 15.2366 101.702 15.2366C100.354 15.2366 99.3557 14.1113 99.3557 12.5279C99.3557 10.8681 100.391 9.69891 101.804 9.69891C102.553 9.69891 103.083 9.9386 103.382 10.4202H103.406V7.37402H104.65V13.6859C104.65 14.199 104.663 14.6795 104.697 15.1162H103.59ZM103.406 11.9934C103.406 11.2507 102.888 10.6172 102.097 10.6172C101.176 10.6172 100.613 11.3925 100.613 12.4841C100.613 13.5542 101.197 14.2868 102.072 14.2868C102.854 14.2868 103.406 13.642 103.406 12.8779V11.9934ZM112.537 15.2366C110.904 15.2366 109.846 14.0786 109.846 12.5066C109.846 10.8681 110.927 9.70004 112.63 9.70004C114.241 9.70004 115.323 10.8028 115.323 12.4199C115.324 14.0786 114.208 15.2366 112.537 15.2366ZM112.584 10.562C111.687 10.562 111.112 11.3587 111.112 12.4728C111.112 13.5655 111.699 14.3622 112.572 14.3622C113.447 14.3622 114.033 13.5103 114.033 12.4503C114.035 11.37 113.46 10.562 112.584 10.562ZM122.006 15.1162H120.762V12.0688C120.762 11.1303 120.383 10.6599 119.634 10.6599C118.898 10.6599 118.393 11.2608 118.393 11.9597V15.1162H117.149V11.3261C117.149 10.8569 117.137 10.3538 117.103 9.80807H118.196L118.254 10.6273H118.289C118.622 10.0601 119.301 9.69891 120.06 9.69891C121.234 9.69891 122.006 10.5508 122.006 11.9372V15.1162ZM130.367 10.6937H129V13.2706C129 13.9267 129.24 14.2542 129.723 14.2542C129.943 14.2542 130.127 14.2317 130.275 14.199L130.309 15.0948C130.069 15.1825 129.746 15.2264 129.345 15.2264C128.366 15.2264 127.78 14.7133 127.78 13.3697V10.6937H126.964V9.80919H127.78V8.83693L129 8.48695V9.80807H130.367V10.6937ZM136.946 15.1162H135.705V12.0913C135.705 11.1416 135.327 10.6611 134.577 10.6611C133.933 10.6611 133.333 11.0763 133.333 11.9169V15.1162H132.092V7.37402H133.333V10.562H133.358C133.749 9.98362 134.316 9.69891 135.04 9.69891C136.223 9.69891 136.946 10.5722 136.946 11.9597V15.1162ZM143.687 12.7463H139.957C139.981 13.7512 140.682 14.3183 141.719 14.3183C142.271 14.3183 142.778 14.2305 143.227 14.0674L143.42 14.8866C142.891 15.1049 142.268 15.2141 141.544 15.2141C139.795 15.2141 138.759 14.1653 138.759 12.5392C138.759 10.912 139.82 9.68878 141.404 9.68878C142.833 9.68878 143.729 10.6937 143.729 12.2117C143.737 12.3909 143.723 12.5703 143.687 12.7463ZM142.547 11.9056C142.547 11.0864 142.112 10.508 141.317 10.508C140.603 10.508 140.039 11.0977 139.958 11.9056H142.547Z" fill="white"/>
<defs>
<linearGradient id="paint0_linear_309_7671" x1="117.348" y1="45.1195" x2="117.348" y2="-117.172" gradientUnits="userSpaceOnUse">
<stop stop-color="#1A1A1A" stop-opacity="0.1"/>
<stop offset="0.123" stop-color="#212121" stop-opacity="0.151"/>
<stop offset="0.308" stop-color="#353535" stop-opacity="0.227"/>
<stop offset="0.532" stop-color="#575757" stop-opacity="0.318"/>
<stop offset="0.783" stop-color="#858585" stop-opacity="0.421"/>
<stop offset="1" stop-color="#B3B3B3" stop-opacity="0.51"/>
</linearGradient>
</defs>
</svg>
