<svg width="154" height="142" viewBox="0 0 154 142" fill="none" xmlns="http://www.w3.org/2000/svg">
<path d="M141.066 45.342H75.7969L45.418 3.35618C44.2148 1.34247 42.5104 0.234933 40.3047 0.0335618C38.099 -0.167809 35.9935 0.536989 33.9883 2.14796C30.9805 5.36989 30.7799 8.59182 33.3867 11.8138L57.1484 45.342H12.9336C9.32422 45.342 6.26628 46.6006 3.75977 49.1177C1.25326 51.6348 0 54.6051 0 58.0284V64.6736C0 70.312 2.60677 74.138 7.82031 76.1517L25.5664 130.824C26.3685 133.643 27.9727 136.211 30.3789 138.526C32.7852 140.842 35.4922 142 38.5 142H115.5C118.508 142 121.215 140.842 123.621 138.526C126.027 136.211 127.632 133.643 128.434 130.824L146.18 76.7559C151.393 74.7421 154 70.9161 154 65.2777V58.6325C154 54.8064 152.747 51.6348 150.24 49.1177C147.734 46.6006 144.676 45.342 141.066 45.342ZM12.9336 58.0284H66.7734L71.2852 64.0695C71.6862 64.0695 71.8867 64.2709 71.8867 64.6736H12.9336V58.0284ZM116.102 127.199V127.803C116.102 128.005 116.001 128.206 115.801 128.407C115.6 128.609 115.5 128.81 115.5 129.012H39.1016C38.7005 129.012 38.5 128.609 38.5 127.803L21.957 77.36H132.043L116.102 127.199ZM82.7148 64.6736C84.1185 62.2572 84.8203 60.0421 84.8203 58.0284H141.066V64.6736H82.7148ZM44.8164 117.533C45.0169 118.943 45.819 120.151 47.2227 121.158C48.6263 122.165 50.0299 122.668 51.4336 122.668H52.6367C54.2409 122.266 55.5443 121.259 56.5469 119.648C57.5495 118.037 57.75 116.426 57.1484 114.815L50.832 89.1402C50.431 87.5292 49.4284 86.2203 47.8242 85.2134C46.2201 84.2066 44.6159 84.0052 43.0117 84.6093C41.4076 85.0121 40.1042 86.0189 39.1016 87.6299C38.099 89.2408 37.8984 90.7511 38.5 92.1607L44.8164 117.533ZM101.363 122.668H102.566C103.97 122.668 105.374 122.165 106.777 121.158C108.181 120.151 108.983 118.943 109.184 117.533L115.5 91.5566C115.901 89.9456 115.65 88.3347 114.748 86.7237C113.846 85.1127 112.592 84.2066 110.988 84.0052C106.777 83.1997 104.171 84.71 103.168 88.536L96.8516 114.211C95.6484 118.238 97.1523 121.057 101.363 122.668ZM77 122.668C81.2109 122.668 83.3164 120.453 83.3164 116.023V90.3484C83.3164 86.1196 81.2109 84.0052 77 84.0052C72.7891 84.0052 70.6836 86.1196 70.6836 90.3484V116.023C70.6836 120.453 72.7891 122.668 77 122.668Z" fill="black"/>
</svg>
