<svg width="31" height="28" viewBox="0 0 31 28" fill="none" xmlns="http://www.w3.org/2000/svg">
<path d="M27.9805 8.63699H15.2656L9.34766 0.653772C9.11328 0.270884 8.78125 0.0602953 8.35156 0.0220065C7.92188 -0.0162823 7.51172 0.117729 7.12109 0.424039C6.53516 1.03666 6.49609 1.64928 7.00391 2.2619L11.6328 8.63699H3.01953C2.31641 8.63699 1.7207 8.8763 1.23242 9.35491C0.744141 9.83352 0.5 10.3983 0.5 11.0492V12.3127C0.5 13.3848 1.00781 14.1123 2.02344 14.4952L5.48047 24.8906C5.63672 25.4266 5.94922 25.9148 6.41797 26.3551C6.88672 26.7955 7.41406 27.0156 8 27.0156H23C23.5859 27.0156 24.1133 26.7955 24.582 26.3551C25.0508 25.9148 25.3633 25.4266 25.5195 24.8906L28.9766 14.61C29.9922 14.2272 30.5 13.4997 30.5 12.4276V11.1641C30.5 10.4366 30.2559 9.83352 29.7676 9.35491C29.2793 8.8763 28.6836 8.63699 27.9805 8.63699ZM3.01953 11.0492H13.5078L14.3867 12.1979C14.4648 12.1979 14.5039 12.2361 14.5039 12.3127H3.01953V11.0492ZM23.1172 24.2014V24.3163C23.1172 24.3546 23.0977 24.3928 23.0586 24.4311C23.0195 24.4694 23 24.5077 23 24.546H8.11719C8.03906 24.546 8 24.4694 8 24.3163L4.77734 14.7249H26.2227L23.1172 24.2014ZM16.6133 12.3127C16.8867 11.8533 17.0234 11.4321 17.0234 11.0492H27.9805V12.3127H16.6133ZM9.23047 22.3635C9.26953 22.6316 9.42578 22.8613 9.69922 23.0527C9.97266 23.2442 10.2461 23.3399 10.5195 23.3399H10.7539C11.0664 23.2633 11.3203 23.0719 11.5156 22.7656C11.7109 22.4593 11.75 22.1529 11.6328 21.8466L10.4023 16.9648C10.3242 16.6585 10.1289 16.4096 9.81641 16.2182C9.50391 16.0267 9.19141 15.9884 8.87891 16.1033C8.56641 16.1799 8.3125 16.3713 8.11719 16.6776C7.92188 16.984 7.88281 17.2711 8 17.5391L9.23047 22.3635ZM20.2461 23.3399H20.4805C20.7539 23.3399 21.0273 23.2442 21.3008 23.0527C21.5742 22.8613 21.7305 22.6316 21.7695 22.3635L23 17.4243C23.0781 17.118 23.0293 16.8117 22.8535 16.5053C22.6777 16.199 22.4336 16.0267 22.1211 15.9884C21.3008 15.8353 20.793 16.1225 20.5977 16.8499L19.3672 21.7318C19.1328 22.4975 19.4258 23.0336 20.2461 23.3399ZM15.5 23.3399C16.3203 23.3399 16.7305 22.9187 16.7305 22.0764V17.1945C16.7305 16.3905 16.3203 15.9884 15.5 15.9884C14.6797 15.9884 14.2695 16.3905 14.2695 17.1945V22.0764C14.2695 22.9187 14.6797 23.3399 15.5 23.3399Z" fill="#F5F5F5"/>
</svg>
