<svg width="30" height="26" viewBox="0 0 30 26" fill="none" xmlns="http://www.w3.org/2000/svg">
<path d="M5.45455 0.598633H30V19.3486H5.45455V0.598633ZM17.7273 5.28613C18.8123 5.28613 19.8528 5.77999 20.62 6.65907C21.3872 7.53815 21.8182 8.73043 21.8182 9.97363C21.8182 11.2168 21.3872 12.4091 20.62 13.2882C19.8528 14.1673 18.8123 14.6611 17.7273 14.6611C16.6423 14.6611 15.6018 14.1673 14.8346 13.2882C14.0674 12.4091 13.6364 11.2168 13.6364 9.97363C13.6364 8.73043 14.0674 7.53815 14.8346 6.65907C15.6018 5.77999 16.6423 5.28613 17.7273 5.28613ZM10.9091 3.72363C10.9091 4.55243 10.6218 5.34729 10.1103 5.93334C9.59883 6.51939 8.90514 6.84863 8.18182 6.84863V13.0986C8.90514 13.0986 9.59883 13.4279 10.1103 14.0139C10.6218 14.6 10.9091 15.3948 10.9091 16.2236H24.5455C24.5455 15.3948 24.8328 14.6 25.3443 14.0139C25.8557 13.4279 26.5494 13.0986 27.2727 13.0986V6.84863C26.5494 6.84863 25.8557 6.51939 25.3443 5.93334C24.8328 5.34729 24.5455 4.55243 24.5455 3.72363H10.9091ZM0 6.84863H2.72727V22.4736H24.5455V25.5986H0V6.84863Z" fill="black"/>
</svg>
