<svg width="31" height="30" viewBox="0 0 31 30" fill="none" xmlns="http://www.w3.org/2000/svg">
<path d="M25.085 0H5.08496C3.75888 0 2.48711 0.526784 1.54943 1.46447C0.611745 2.40215 0.0849609 3.67392 0.0849609 5V25C0.0849609 26.3261 0.611745 27.5979 1.54943 28.5355C2.48711 29.4732 3.75888 30 5.08496 30H25.085C26.411 30 27.6828 29.4732 28.6205 28.5355C29.5582 27.5979 30.085 26.3261 30.085 25V5C30.085 3.67392 29.5582 2.40215 28.6205 1.46447C27.6828 0.526784 26.411 0 25.085 0ZM19.6016 17.15C19.7578 17.3049 19.8818 17.4893 19.9664 17.6924C20.0511 17.8955 20.0946 18.1133 20.0946 18.3333C20.0946 18.5534 20.0511 18.7712 19.9664 18.9743C19.8818 19.1774 19.7578 19.3617 19.6016 19.5167C19.4467 19.6729 19.2624 19.7969 19.0593 19.8815C18.8562 19.9661 18.6383 20.0097 18.4183 20.0097C18.1983 20.0097 17.9804 19.9661 17.7773 19.8815C17.5742 19.7969 17.3899 19.6729 17.235 19.5167L15.085 17.35L12.935 19.5167C12.78 19.6729 12.5957 19.7969 12.3926 19.8815C12.1895 19.9661 11.9716 20.0097 11.7516 20.0097C11.5316 20.0097 11.3138 19.9661 11.1107 19.8815C10.9076 19.7969 10.7232 19.6729 10.5683 19.5167C10.4121 19.3617 10.2881 19.1774 10.2035 18.9743C10.1189 18.7712 10.0753 18.5534 10.0753 18.3333C10.0753 18.1133 10.1189 17.8955 10.2035 17.6924C10.2881 17.4893 10.4121 17.3049 10.5683 17.15L12.735 15L10.5683 12.85C10.2545 12.5362 10.0781 12.1105 10.0781 11.6667C10.0781 11.2228 10.2545 10.7972 10.5683 10.4833C10.8821 10.1695 11.3078 9.99318 11.7516 9.99318C12.1955 9.99318 12.6211 10.1695 12.935 10.4833L15.085 12.65L17.235 10.4833C17.5488 10.1695 17.9745 9.99318 18.4183 9.99318C18.8621 9.99318 19.2878 10.1695 19.6016 10.4833C19.9155 10.7972 20.0918 11.2228 20.0918 11.6667C20.0918 12.1105 19.9155 12.5362 19.6016 12.85L17.435 15L19.6016 17.15Z" fill="#207D66"/>
</svg>
