<svg width="21" height="21" viewBox="0 0 21 21" fill="none" xmlns="http://www.w3.org/2000/svg">
<path d="M17.2233 0.700195H3.88997C3.00592 0.700195 2.15807 1.05138 1.53295 1.67651C0.90783 2.30163 0.556641 3.14947 0.556641 4.03353V17.3669C0.556641 18.2509 0.90783 19.0988 1.53295 19.7239C2.15807 20.349 3.00592 20.7002 3.88997 20.7002H17.2233C18.1074 20.7002 18.9552 20.349 19.5803 19.7239C20.2055 19.0988 20.5566 18.2509 20.5566 17.3669V4.03353C20.5566 3.14947 20.2055 2.30163 19.5803 1.67651C18.9552 1.05138 18.1074 0.700195 17.2233 0.700195ZM18.3344 17.3669C18.3344 17.6615 18.2174 17.9442 18.009 18.1525C17.8006 18.3609 17.518 18.478 17.2233 18.478H3.88997C3.59529 18.478 3.31267 18.3609 3.1043 18.1525C2.89593 17.9442 2.77886 17.6615 2.77886 17.3669V4.03353C2.77886 3.73884 2.89593 3.45623 3.1043 3.24785C3.31267 3.03948 3.59529 2.92242 3.88997 2.92242H17.2233C17.518 2.92242 17.8006 3.03948 18.009 3.24785C18.2174 3.45623 18.3344 3.73884 18.3344 4.03353V17.3669Z" fill="black"/>
<path d="M15.0646 6.19224C14.91 6.03633 14.726 5.91258 14.5233 5.82813C14.3206 5.74368 14.1031 5.7002 13.8835 5.7002C13.6639 5.7002 13.4465 5.74368 13.2438 5.82813C13.0411 5.91258 12.8571 6.03633 12.7025 6.19224L10.5566 8.35473L8.41079 6.19224C8.09755 5.87901 7.67272 5.70303 7.22974 5.70303C6.78676 5.70303 6.36192 5.87901 6.04869 6.19224C5.73545 6.50548 5.55948 6.93031 5.55948 7.37329C5.55948 7.81627 5.73545 8.24111 6.04869 8.55434L8.21117 10.7002L6.04869 12.846C5.89277 13.0007 5.76902 13.1847 5.68457 13.3874C5.60012 13.5901 5.55664 13.8075 5.55664 14.0271C5.55664 14.2467 5.60012 14.4641 5.68457 14.6668C5.76902 14.8695 5.89277 15.0535 6.04869 15.2081C6.20333 15.3641 6.38731 15.4878 6.59001 15.5723C6.79272 15.6567 7.01014 15.7002 7.22974 15.7002C7.44933 15.7002 7.66676 15.6567 7.86946 15.5723C8.07217 15.4878 8.25615 15.3641 8.41079 15.2081L10.5566 13.0457L12.7025 15.2081C12.8571 15.3641 13.0411 15.4878 13.2438 15.5723C13.4465 15.6567 13.6639 15.7002 13.8835 15.7002C14.1031 15.7002 14.3206 15.6567 14.5233 15.5723C14.726 15.4878 14.91 15.3641 15.0646 15.2081C15.2205 15.0535 15.3443 14.8695 15.4287 14.6668C15.5132 14.4641 15.5566 14.2467 15.5566 14.0271C15.5566 13.8075 15.5132 13.5901 15.4287 13.3874C15.3443 13.1847 15.2205 13.0007 15.0646 12.846L12.9021 10.7002L15.0646 8.55434C15.2205 8.3997 15.3443 8.21572 15.4287 8.01302C15.5132 7.81031 15.5566 7.59289 15.5566 7.37329C15.5566 7.1537 15.5132 6.93627 15.4287 6.73357C15.3443 6.53086 15.2205 6.34688 15.0646 6.19224V6.19224Z" fill="black"/>
</svg>
