<svg width="118" height="118" viewBox="0 0 118 118" fill="none" xmlns="http://www.w3.org/2000/svg">
<g filter="url(#filter0_d_1_2600)">
<circle cx="60.2524" cy="54.5512" r="54.5512" fill="white"/>
<circle cx="60.2524" cy="54.5512" r="53.5512" stroke="#2A5F9E" stroke-width="2"/>
</g>
<path d="M80.6717 48.1661C79.7385 42.6202 77.1925 37.6263 73.4683 34.0373C69.7442 30.4484 65.0731 28.487 60.2529 28.4883C52.2242 28.4883 45.2513 33.8313 41.7787 41.6503C37.6956 42.1677 33.9196 44.4365 31.1762 48.0206C28.4328 51.6046 26.9155 56.2512 26.916 61.0675C26.916 71.8512 34.389 80.615 43.5844 80.615H79.6994C87.3669 80.615 93.5897 73.3173 93.5897 64.3254C93.5897 55.7245 87.8947 48.7525 80.6717 48.1661ZM79.6994 74.0992H43.5844C37.4449 74.0992 32.4722 68.2675 32.4722 61.0675C32.4722 54.3887 36.7226 48.8177 42.3621 48.1335L45.3346 47.7752L46.7237 44.6801C48.0012 41.7636 49.9403 39.317 52.3274 37.6098C54.7144 35.9026 57.4569 35.0009 60.2529 35.0041C67.5314 35.0041 73.8099 41.0639 75.2267 49.4367L76.0601 54.3236L80.3106 54.682C82.3989 54.8467 84.3566 55.933 85.7895 57.7222C87.2224 59.5114 88.0243 61.8708 88.0336 64.3254C88.0336 69.701 84.2832 74.0992 79.6994 74.0992ZM64.2811 48.0358H56.2247V57.8096H49.1406L60.2529 70.8412L71.3652 57.8096H64.2811V48.0358Z" fill="#C31162"/>
<defs>
<filter id="filter0_d_1_2600" x="0.701172" y="0" width="117.102" height="117.103" filterUnits="userSpaceOnUse" color-interpolation-filters="sRGB">
<feFlood flood-opacity="0" result="BackgroundImageFix"/>
<feColorMatrix in="SourceAlpha" type="matrix" values="0 0 0 0 0 0 0 0 0 0 0 0 0 0 0 0 0 0 127 0" result="hardAlpha"/>
<feOffset dx="-1" dy="4"/>
<feGaussianBlur stdDeviation="2"/>
<feComposite in2="hardAlpha" operator="out"/>
<feColorMatrix type="matrix" values="0 0 0 0 0 0 0 0 0 0 0 0 0 0 0 0 0 0 0.25 0"/>
<feBlend mode="normal" in2="BackgroundImageFix" result="effect1_dropShadow_1_2600"/>
<feBlend mode="normal" in="SourceGraphic" in2="effect1_dropShadow_1_2600" result="shape"/>
</filter>
</defs>
</svg>
