<svg width="20" height="20" viewBox="0 0 20 20" fill="none" xmlns="http://www.w3.org/2000/svg">
<g filter="url(#filter0_i_309_8840)">
<path d="M9.99998 0C5.63332 0 1.93332 2.8 0.56665 6.66667H19.4333C18.0667 2.8 14.3667 0 9.99998 0Z" fill="#ED4C5C"/>
<path d="M9.99998 20C14.3667 20 18.0667 17.2333 19.4333 13.3333H0.56665C1.93332 17.2333 5.63332 20 9.99998 20Z" fill="#3E4347"/>
<path d="M0.566667 6.66669C0.2 7.70002 0 8.83335 0 10C0 11.1667 0.2 12.3 0.566667 13.3334H19.4333C19.8 12.3 20 11.1667 20 10C20 8.83335 19.8 7.70002 19.4333 6.66669H0.566667Z" fill="#F9F9F9"/>
<path d="M9.53331 7.70001C9.63331 7.63334 9.69997 7.70001 9.76664 7.76667C9.79997 7.83334 9.79998 8.03334 9.73331 8.26667C9.69998 8.40001 9.59998 8.53334 9.53331 8.63334C9.66664 8.63334 9.83331 8.60001 9.99998 8.53334C10.1666 8.60001 10.3 8.63334 10.4666 8.63334C10.4 8.50001 10.3333 8.23334 10.3666 8.03334C10.3666 7.73334 10.3333 7.63334 10.2666 7.56668C10.2 7.50001 10.0333 7.46667 9.93331 7.46667C9.86664 7.46667 9.86664 7.50001 9.86664 7.50001C9.73331 7.46667 9.63331 7.46667 9.56664 7.50001C9.49998 7.56667 9.49998 7.73334 9.53331 7.70001Z" fill="white"/>
<path d="M11.7667 8.69998C11.7 8.33332 11.3333 8.43332 11.0333 8.59998C10.9 8.66665 10.7667 8.73332 10.6333 8.73332H10.5333C10.3667 8.73332 10.1667 8.69998 10 8.63332C9.83334 8.69998 9.63334 8.73332 9.46667 8.73332H9.4C9.23334 8.73332 9.1 8.66665 8.96667 8.56665C8.7 8.43332 8.33334 8.33332 8.23334 8.66665C8.3 8.63332 8.36667 8.56665 8.4 8.56665L8.26667 11.7666L8.33334 11.7L8.46667 8.59998C8.5 8.63332 8.63334 8.76665 8.66667 8.76665L8.56667 11.4667L8.66667 11.3666L8.76667 8.79998C8.8 8.83332 8.9 8.89998 8.93334 8.93332L8.83334 11.1667L9.1 10.9333L9.36667 10.0333C9.13334 9.53332 9.16667 9.09998 9.16667 9.09998H9.23334C9.4 9.09998 9.76667 8.99998 9.93334 8.89998C9.96667 8.89998 9.96667 8.86665 10 8.86665C10 8.89998 10.0333 8.89998 10.0667 8.93332C10.2333 9.03332 10.6 9.13332 10.7667 9.13332H10.8333C10.8333 9.13332 10.8667 9.56665 10.6333 10.0667L10.8667 10.9333L11.1333 11.1667L11.0333 8.96665C11.0667 8.93332 11.1333 8.86665 11.2 8.83332L11.3 11.3333L11.4 11.4333L11.3 8.76665C11.3333 8.73332 11.4667 8.63332 11.5 8.59998L11.6333 11.6667L11.7 11.7333L11.5667 8.56665C11.6 8.59998 11.7 8.66665 11.7667 8.69998Z" fill="white"/>
<path d="M9.70001 9.23337V10.5334C9.70001 10.5334 9.70001 10.5667 9.73335 10.5667C9.76668 10.6334 9.83335 10.6667 9.86668 10.7334L9.96668 10.8334L10.0667 10.7334L10.2333 10.5667V9.30004C10.1333 9.2667 10.0333 9.23337 9.96668 9.1667C9.93335 9.13337 9.83335 9.1667 9.70001 9.23337Z" fill="white"/>
<path d="M11.4333 11.9667C11.4333 11.8 11.2667 11.8 11.1333 11.8333C11.1 11.8333 11.1 11.8333 11.0667 11.8667L10.8667 11.1333L11.9667 12.2L11.8333 8.73334C11.8 8.20001 11.3667 8.33334 11.0667 8.53334C10.9 8.63334 10.7667 8.70001 10.6 8.70001C10.3667 8.30001 10.5 7.76667 10.3333 7.63334C10.2667 7.56667 10.0333 7.46667 9.86667 7.46667C9.76667 7.46667 9.8 7.53334 9.8 7.53334C9.63333 7.50001 9.5 7.50001 9.43333 7.56668C9.36667 7.60001 9.43333 7.93334 9.46667 7.86668C9.56667 7.76668 9.6 7.80001 9.66667 7.90001C9.73333 8.00001 9.6 8.40001 9.43333 8.70001C9.23333 8.70001 9.06667 8.63334 8.9 8.53334C8.56667 8.33334 8.13333 8.23334 8.13333 8.73334L8 12.1667L9.1 11.1333L8.9 11.8333C8.86667 11.8333 8.86667 11.8333 8.83333 11.8C8.7 11.7667 8.53333 11.7667 8.53333 11.9333C8.33333 11.9 8.26667 12.2 8.46667 12.2667C8.46667 12.3667 8.46667 12.4333 8.6 12.4333C8.9 12.5333 9.43333 12.5667 9.96667 12.5667C10.5 12.5667 11.0333 12.5333 11.3333 12.4333C11.4667 12.4 11.4667 12.3333 11.4667 12.2667C11.7333 12.2 11.6333 11.9 11.4333 11.9667ZM9.73333 10.5333C9.73333 10.5 9.73333 10.5 9.73333 10.5333L9.7 10.5V9.23334C9.83333 9.20001 9.93333 9.16667 10 9.10001C10.0667 9.16667 10.1667 9.20001 10.2667 9.23334V10.5C10.2 10.5667 10.1667 10.6333 10.1 10.6667L10 10.7667L9.9 10.6667C9.83333 10.6333 9.8 10.5667 9.73333 10.5333ZM9.73333 8.30001C9.8 8.06667 9.8 7.86667 9.76667 7.80001C9.7 7.73334 9.63333 7.66668 9.53333 7.73334C9.5 7.76668 9.5 7.60001 9.56667 7.56668C9.63333 7.53334 9.73333 7.53334 9.86667 7.56668C9.86667 7.56668 9.86667 7.50001 9.93333 7.53334C10.0333 7.53334 10.2333 7.60001 10.2667 7.63334C10.3 7.66667 10.3667 7.80001 10.3667 8.10001C10.3667 8.30001 10.4 8.56668 10.4667 8.70001C10.3333 8.70001 10.1667 8.66667 10 8.60001C9.83333 8.66667 9.7 8.70001 9.53333 8.70001C9.6 8.56668 9.7 8.43334 9.73333 8.30001ZM8.86667 11.2667L8.96667 9.03334C8.93333 9.00001 8.86667 8.93334 8.8 8.90001L8.66667 11.4333L8.56667 11.5333L8.66667 8.83334C8.63333 8.80001 8.5 8.70001 8.46667 8.66667L8.33333 11.7667L8.26667 11.8333L8.4 8.63334C8.36667 8.63334 8.26667 8.66668 8.23333 8.73334C8.33333 8.40001 8.7 8.50001 8.96667 8.66667C9.1 8.76667 9.26667 8.80001 9.4 8.83334H9.46667C9.63333 8.83334 9.8 8.80001 10 8.73334C10.2 8.80001 10.3667 8.83334 10.5333 8.83334H10.6333C10.7667 8.80001 10.9 8.76668 11.0333 8.70001C11.3333 8.53334 11.7 8.43334 11.7667 8.80001C11.7 8.76667 11.6 8.70001 11.5667 8.70001L11.7 11.8667L11.6333 11.8L11.5 8.66667C11.4667 8.70001 11.3333 8.83334 11.3 8.83334L11.4 11.5L11.3 11.4L11.2 8.90001C11.1667 8.93334 11.0667 9.00001 11.0333 9.03334L11.1333 11.2333L10.8667 11L10.6333 10.1333C10.8667 9.63334 10.8333 9.20001 10.8333 9.20001H10.7667C10.6 9.20001 10.2333 9.13334 10.0667 9.00001C10.0333 9.00001 10.0333 8.96667 10 8.93334C10 8.93334 9.96667 8.96667 9.93333 8.96667C9.76667 9.06667 9.4 9.16667 9.23333 9.16667H9.16667C9.16667 9.16667 9.13333 9.60001 9.36667 10.1L9.1 11L8.86667 11.2667ZM10 11.9333H9.63333L9.86667 10.8C9.9 10.8333 9.93333 10.8667 10 10.9C10.0333 10.8667 10.1 10.8333 10.1333 10.8L10.4 11.9333H10Z" fill="#C09300"/>
</g>
<defs>
<filter id="filter0_i_309_8840" x="-1" y="0" width="21" height="21" filterUnits="userSpaceOnUse" color-interpolation-filters="sRGB">
<feFlood flood-opacity="0" result="BackgroundImageFix"/>
<feBlend mode="normal" in="SourceGraphic" in2="BackgroundImageFix" result="shape"/>
<feColorMatrix in="SourceAlpha" type="matrix" values="0 0 0 0 0 0 0 0 0 0 0 0 0 0 0 0 0 0 127 0" result="hardAlpha"/>
<feOffset dx="-1" dy="1"/>
<feGaussianBlur stdDeviation="0.5"/>
<feComposite in2="hardAlpha" operator="arithmetic" k2="-1" k3="1"/>
<feColorMatrix type="matrix" values="0 0 0 0 0 0 0 0 0 0 0 0 0 0 0 0 0 0 0.25 0"/>
<feBlend mode="normal" in2="shape" result="effect1_innerShadow_309_8840"/>
</filter>
</defs>
</svg>
