<svg width="160" height="45" viewBox="0 0 160 45" fill="none" xmlns="http://www.w3.org/2000/svg">
<path d="M154.074 45H5.92593C2.60741 45 0 42.525 0 39.375V5.625C0 2.475 2.60741 0 5.92593 0H154.074C157.393 0 160 2.475 160 5.625V39.375C160 42.525 157.393 45 154.074 45Z" fill="black"/>
<path d="M154.074 0.9C156.8 0.9 159.052 3.0375 159.052 5.625V39.375C159.052 41.9625 156.8 44.1 154.074 44.1H5.92593C3.2 44.1 0.948148 41.9625 0.948148 39.375V5.625C0.948148 3.0375 3.2 0.9 5.92593 0.9H154.074ZM154.074 0H5.92593C2.60741 0 0 2.5875 0 5.625V39.375C0 42.525 2.60741 45 5.92593 45H154.074C157.393 45 160 42.525 160 39.375V5.625C160 2.5875 157.393 0 154.074 0Z" fill="#A6A6A6"/>
<path d="M56.1779 11.4752C56.1779 12.3752 55.9408 13.1627 55.3483 13.7252C54.6371 14.4002 53.8075 14.7377 52.7408 14.7377C51.6742 14.7377 50.8445 14.4002 50.1334 13.7252C49.4223 13.0502 49.0668 12.2627 49.0668 11.2502C49.0668 10.2377 49.4223 9.4502 50.1334 8.7752C50.8445 8.1002 51.6742 7.7627 52.7408 7.7627C53.2149 7.7627 53.689 7.87519 54.1631 8.10019C54.6371 8.3252 54.9927 8.5502 55.2297 8.8877L54.6371 9.45019C54.1631 8.88769 53.5705 8.66269 52.7408 8.66269C52.0297 8.66269 51.3186 8.88769 50.8446 9.45019C50.252 9.90019 50.0149 10.5752 50.0149 11.3627C50.0149 12.1502 50.252 12.8252 50.8446 13.2752C51.4371 13.7252 52.0297 14.0627 52.7408 14.0627C53.5705 14.0627 54.1631 13.8377 54.7557 13.2752C55.1112 12.9377 55.3483 12.4877 55.3483 11.9252H52.7408V11.0252H56.1779V11.4752ZM61.6297 8.66269H58.4297V10.8002H61.3927V11.5877H58.4297V13.7252H61.6297V14.6252H57.4816V7.8752H61.6297V8.66269ZM65.5408 14.6252H64.5927V8.66269H62.5779V7.8752H67.5557V8.66269H65.5408V14.6252ZM70.9927 14.6252V7.8752H71.9408V14.6252H70.9927ZM75.9705 14.6252H75.0223V8.66269H73.0075V7.8752H77.8668V8.66269H75.852V14.6252H75.9705ZM87.2297 13.7252C86.5186 14.4002 85.689 14.7377 84.6223 14.7377C83.5557 14.7377 82.726 14.4002 82.0149 13.7252C81.3038 13.0502 80.9483 12.2627 80.9483 11.2502C80.9483 10.2377 81.3038 9.4502 82.0149 8.7752C82.726 8.1002 83.5557 7.7627 84.6223 7.7627C85.689 7.7627 86.5186 8.1002 87.2297 8.7752C87.9408 9.4502 88.2964 10.2377 88.2964 11.2502C88.2964 12.2627 87.9408 13.0502 87.2297 13.7252ZM82.726 13.1627C83.2001 13.6127 83.9112 13.9502 84.6223 13.9502C85.3334 13.9502 86.0445 13.7252 86.5186 13.1627C86.9927 12.7127 87.3482 12.0377 87.3482 11.2502C87.3482 10.4627 87.1112 9.7877 86.5186 9.3377C86.0445 8.8877 85.3334 8.5502 84.6223 8.5502C83.9112 8.5502 83.2001 8.7752 82.726 9.3377C82.252 9.7877 81.8964 10.4627 81.8964 11.2502C81.8964 12.0377 82.1334 12.7127 82.726 13.1627ZM89.6001 14.6252V7.8752H90.6668L94.1038 13.1627V7.8752H95.052V14.6252H94.1038L90.4297 9.1127V14.6252H89.6001Z" fill="white" stroke="white" stroke-width="0.2" stroke-miterlimit="10"/>
<path d="M80.7109 24.5248C77.8665 24.5248 75.6146 26.5498 75.6146 29.3623C75.6146 32.0623 77.8665 34.1998 80.7109 34.1998C83.5554 34.1998 85.8072 32.1748 85.8072 29.3623C85.8072 26.4373 83.5554 24.5248 80.7109 24.5248ZM80.7109 32.1748C79.1702 32.1748 77.8665 30.9373 77.8665 29.2498C77.8665 27.5623 79.1702 26.3248 80.7109 26.3248C82.2517 26.3248 83.5554 27.4498 83.5554 29.2498C83.5554 30.9373 82.2517 32.1748 80.7109 32.1748ZM69.6887 24.5248C66.8443 24.5248 64.5924 26.5498 64.5924 29.3623C64.5924 32.0623 66.8443 34.1998 69.6887 34.1998C72.5332 34.1998 74.785 32.1748 74.785 29.3623C74.785 26.4373 72.5332 24.5248 69.6887 24.5248ZM69.6887 32.1748C68.148 32.1748 66.8443 30.9373 66.8443 29.2498C66.8443 27.5623 68.148 26.3248 69.6887 26.3248C71.2295 26.3248 72.5332 27.4498 72.5332 29.2498C72.5332 30.9373 71.2295 32.1748 69.6887 32.1748ZM56.5332 25.9873V28.0123H61.6295C61.5109 29.1373 61.0369 30.0373 60.4443 30.5998C59.7332 31.2748 58.548 32.0623 56.5332 32.0623C53.3332 32.0623 50.9628 29.6998 50.9628 26.6623C50.9628 23.6248 53.4517 21.2623 56.5332 21.2623C58.1924 21.2623 59.4961 21.9373 60.4443 22.7248L61.985 21.2623C60.6813 20.1373 59.022 19.2373 56.6517 19.2373C52.385 19.2373 48.7109 22.6123 48.7109 26.6623C48.7109 30.7123 52.385 34.0873 56.6517 34.0873C59.022 34.0873 60.6813 33.4123 62.1035 31.9498C63.5258 30.5998 63.9998 28.6873 63.9998 27.2248C63.9998 26.7748 63.9998 26.3248 63.8813 25.9873H56.5332ZM110.341 27.5623C109.866 26.4373 108.681 24.5248 106.074 24.5248C103.466 24.5248 101.333 26.4373 101.333 29.3623C101.333 32.0623 103.466 34.1998 106.311 34.1998C108.563 34.1998 109.985 32.8498 110.459 32.0623L108.8 30.9373C108.207 31.7248 107.496 32.2873 106.311 32.2873C105.126 32.2873 104.415 31.8373 103.822 30.8248L110.578 28.1248L110.341 27.5623ZM103.466 29.1373C103.466 27.3373 105.007 26.3248 106.074 26.3248C106.904 26.3248 107.733 26.7748 107.97 27.3373L103.466 29.1373ZM97.8961 33.7498H100.148V19.6873H97.8961V33.7498ZM94.3406 25.5373C93.748 24.9748 92.7998 24.4123 91.6146 24.4123C89.1258 24.4123 86.7554 26.5498 86.7554 29.2498C86.7554 31.9498 89.0072 33.9748 91.6146 33.9748C92.7998 33.9748 93.748 33.4123 94.222 32.8498H94.3406V33.5248C94.3406 35.3248 93.2739 36.3373 91.6146 36.3373C90.3109 36.3373 89.3628 35.4373 89.1258 34.6498L87.2295 35.4373C87.822 36.6748 89.2443 38.2498 91.7332 38.2498C94.3406 38.2498 96.4739 36.7873 96.4739 33.2998V24.7498H94.3406V25.5373ZM91.7332 32.1748C90.1924 32.1748 88.8887 30.9373 88.8887 29.2498C88.8887 27.5623 90.1924 26.3248 91.7332 26.3248C93.2739 26.3248 94.4591 27.5623 94.4591 29.2498C94.4591 30.9373 93.2739 32.1748 91.7332 32.1748ZM120.652 19.6873H115.318V33.7498H117.57V28.4623H120.652C123.141 28.4623 125.511 26.7748 125.511 24.0748C125.511 21.3748 123.141 19.6873 120.652 19.6873ZM120.77 26.4373H117.57V21.5998H120.77C122.429 21.5998 123.378 22.9498 123.378 23.9623C123.259 25.1998 122.311 26.4373 120.77 26.4373ZM134.4 24.4123C132.741 24.4123 131.081 25.0873 130.489 26.5498L132.504 27.3373C132.978 26.5498 133.689 26.3248 134.518 26.3248C135.704 26.3248 136.77 26.9998 136.889 28.1248V28.2373C136.533 28.0123 135.585 27.6748 134.637 27.6748C132.504 27.6748 130.37 28.7998 130.37 30.8248C130.37 32.7373 132.148 33.9748 134.044 33.9748C135.585 33.9748 136.296 33.2998 136.889 32.6248H137.007V33.7498H139.141V28.3498C138.904 25.8748 136.889 24.4123 134.4 24.4123ZM134.163 32.1748C133.452 32.1748 132.385 31.8373 132.385 30.9373C132.385 29.8123 133.689 29.4748 134.755 29.4748C135.704 29.4748 136.178 29.6998 136.77 29.9248C136.533 31.2748 135.348 32.1748 134.163 32.1748ZM146.607 24.7498L144.118 30.8248H144L141.392 24.7498H139.022L142.933 33.2998L140.681 38.0248H142.933L148.978 24.7498H146.607ZM126.696 33.7498H128.948V19.6873H126.696V33.7498Z" fill="white"/>
<path d="M12.3259 8.43848C11.9703 8.77598 11.8518 9.33848 11.8518 10.0135V34.876C11.8518 35.551 12.0888 36.1135 12.4444 36.451L12.5629 36.5635L27.2592 22.6135V22.3885L12.3259 8.43848Z" fill="url(#paint0_linear_309_7658)"/>
<path d="M31.9998 27.3384L27.1405 22.7259V22.3884L31.9998 17.7759L32.1183 17.8884L37.9257 21.0384C39.5849 21.9384 39.5849 23.4009 37.9257 24.3009L31.9998 27.3384Z" fill="url(#paint1_linear_309_7658)"/>
<path d="M32.1186 27.226L27.1409 22.501L12.326 36.5635C12.9186 37.126 13.7483 37.126 14.8149 36.676L32.1186 27.226Z" fill="url(#paint2_linear_309_7658)"/>
<path d="M32.1186 17.7767L14.8149 8.43915C13.7483 7.87665 12.9186 7.98915 12.326 8.55165L27.1409 22.5017L32.1186 17.7767Z" fill="url(#paint3_linear_309_7658)"/>
<path opacity="0.2" d="M32.0001 27.1143L14.8149 36.3393C13.8668 36.9018 13.0372 36.7893 12.4446 36.3393L12.326 36.4518L12.4446 36.5643C13.0372 37.0143 13.8668 37.1268 14.8149 36.5643L32.0001 27.1143Z" fill="black"/>
<path opacity="0.12" d="M12.3259 36.3385C11.9703 36.001 11.8518 35.4385 11.8518 34.7635V34.876C11.8518 35.551 12.0888 36.1135 12.4444 36.451V36.3385H12.3259ZM37.9259 23.9635L32 27.1135L32.1185 27.226L37.9259 24.076C38.7555 23.626 39.1111 23.0635 39.1111 22.501C39.1111 23.0635 38.637 23.5135 37.9259 23.9635Z" fill="black"/>
<path opacity="0.25" d="M14.8148 8.5514L37.9259 21.0389C38.637 21.4889 39.1111 21.9389 39.1111 22.5014C39.1111 21.9389 38.7555 21.3764 37.9259 20.9264L14.8148 8.4389C13.1555 7.5389 11.8518 8.2139 11.8518 10.0139V10.1264C11.8518 8.4389 13.1555 7.6514 14.8148 8.5514Z" fill="white"/>
<defs>
<linearGradient id="paint0_linear_309_7658" x1="25.837" y1="9.79973" x2="6.98167" y2="29.6626" gradientUnits="userSpaceOnUse">
<stop stop-color="#00A0FF"/>
<stop offset="0.007" stop-color="#00A1FF"/>
<stop offset="0.26" stop-color="#00BEFF"/>
<stop offset="0.512" stop-color="#00D2FF"/>
<stop offset="0.76" stop-color="#00DFFF"/>
<stop offset="1" stop-color="#00E3FF"/>
</linearGradient>
<linearGradient id="paint1_linear_309_7658" x1="40.0993" y1="22.502" x2="11.4214" y2="22.502" gradientUnits="userSpaceOnUse">
<stop stop-color="#FFE000"/>
<stop offset="0.409" stop-color="#FFBD00"/>
<stop offset="0.775" stop-color="#FFA500"/>
<stop offset="1" stop-color="#FF9C00"/>
</linearGradient>
<linearGradient id="paint2_linear_309_7658" x1="29.4247" y1="25.084" x2="3.8567" y2="52.0198" gradientUnits="userSpaceOnUse">
<stop stop-color="#FF3A44"/>
<stop offset="1" stop-color="#C31162"/>
</linearGradient>
<linearGradient id="paint3_linear_309_7658" x1="8.64842" y1="0.199653" x2="20.0663" y2="12.2284" gradientUnits="userSpaceOnUse">
<stop stop-color="#32A071"/>
<stop offset="0.069" stop-color="#2DA771"/>
<stop offset="0.476" stop-color="#15CF74"/>
<stop offset="0.801" stop-color="#06E775"/>
<stop offset="1" stop-color="#00F076"/>
</linearGradient>
</defs>
</svg>
