<svg width="19" height="20" viewBox="0 0 19 20" fill="none" xmlns="http://www.w3.org/2000/svg">
<g filter="url(#filter0_di_298_9815)">
<path d="M17.5956 7.13904C17.7637 7.00776 17.8885 6.82462 17.9523 6.61529C18.0162 6.40596 18.0159 6.18095 17.9515 5.97181C17.8871 5.76266 17.7619 5.57987 17.5934 5.44906C17.4249 5.31825 17.2215 5.24599 17.0118 5.2424L12.9391 5.08118C12.9191 5.07973 12.8999 5.07225 12.8838 5.05963C12.8678 5.04701 12.8555 5.02979 12.8486 5.01006L11.4412 1.0271C11.3705 0.824462 11.2421 0.649486 11.0733 0.525862C10.9046 0.402238 10.7036 0.335938 10.4977 0.335938C10.2918 0.335938 10.0909 0.402238 9.92213 0.525862C9.75337 0.649486 9.62494 0.824462 9.55423 1.0271L8.15141 5.02428C8.14447 5.04402 8.13224 5.06124 8.11618 5.07385C8.10012 5.08647 8.08093 5.09396 8.0609 5.09541L3.9882 5.25662C3.7785 5.26021 3.57513 5.33248 3.40661 5.46328C3.23809 5.59409 3.11286 5.77688 3.04849 5.98603C2.98412 6.19518 2.98383 6.42019 3.04767 6.62951C3.1115 6.83884 3.23626 7.02199 3.40444 7.15327L6.59925 9.78487C6.61524 9.79805 6.62719 9.81586 6.63363 9.83608C6.64006 9.85631 6.6407 9.87806 6.63545 9.89866L5.53582 13.9812C5.47884 14.1891 5.48436 14.4103 5.55163 14.6148C5.61891 14.8193 5.74467 14.9971 5.9118 15.1241C6.07894 15.251 6.27934 15.3209 6.48574 15.3243C6.69214 15.3277 6.89452 15.2643 7.06535 15.1429L10.4412 12.7721C10.4578 12.7601 10.4775 12.7536 10.4977 12.7536C10.5179 12.7536 10.5377 12.7601 10.5543 12.7721L13.9301 15.1429C14.0986 15.2685 14.3003 15.3359 14.5071 15.3359C14.7139 15.3359 14.9155 15.2685 15.0841 15.1429C15.2512 15.0171 15.3771 14.8402 15.4444 14.6364C15.5116 14.4326 15.517 14.212 15.4597 14.0049L14.351 9.90815C14.3451 9.88758 14.3454 9.86562 14.3519 9.84525C14.3584 9.82488 14.3707 9.80711 14.3872 9.79435L17.5956 7.13904Z" fill="#207D66"/>
</g>
<defs>
<filter id="filter0_di_298_9815" x="0" y="0.335938" width="19" height="19" filterUnits="userSpaceOnUse" color-interpolation-filters="sRGB">
<feFlood flood-opacity="0" result="BackgroundImageFix"/>
<feColorMatrix in="SourceAlpha" type="matrix" values="0 0 0 0 0 0 0 0 0 0 0 0 0 0 0 0 0 0 127 0" result="hardAlpha"/>
<feOffset dx="-1" dy="2"/>
<feGaussianBlur stdDeviation="1"/>
<feComposite in2="hardAlpha" operator="out"/>
<feColorMatrix type="matrix" values="0 0 0 0 0 0 0 0 0 0 0 0 0 0 0 0 0 0 0.25 0"/>
<feBlend mode="normal" in2="BackgroundImageFix" result="effect1_dropShadow_298_9815"/>
<feBlend mode="normal" in="SourceGraphic" in2="effect1_dropShadow_298_9815" result="shape"/>
<feColorMatrix in="SourceAlpha" type="matrix" values="0 0 0 0 0 0 0 0 0 0 0 0 0 0 0 0 0 0 127 0" result="hardAlpha"/>
<feOffset dx="-2" dy="4"/>
<feGaussianBlur stdDeviation="2"/>
<feComposite in2="hardAlpha" operator="arithmetic" k2="-1" k3="1"/>
<feColorMatrix type="matrix" values="0 0 0 0 0 0 0 0 0 0 0 0 0 0 0 0 0 0 0.25 0"/>
<feBlend mode="normal" in2="shape" result="effect2_innerShadow_298_9815"/>
</filter>
</defs>
</svg>
