<svg width="14" height="19" viewBox="0 0 14 19" fill="none" xmlns="http://www.w3.org/2000/svg">
<path d="M7.00001 0.960938C5.1773 0.963088 3.42987 1.68811 2.14102 2.97695C0.852176 4.2658 0.127158 6.01323 0.125007 7.83594C0.122824 9.32545 0.60937 10.7746 1.51001 11.9609C1.51001 11.9609 1.69751 12.2078 1.72813 12.2434L7.00001 18.4609L12.2744 12.2403C12.3019 12.2072 12.49 11.9609 12.49 11.9609L12.4906 11.9591C13.3908 10.7732 13.8771 9.32477 13.875 7.83594C13.8729 6.01323 13.1478 4.2658 11.859 2.97695C10.5701 1.68811 8.82271 0.963088 7.00001 0.960938ZM7.00001 10.3359C6.50555 10.3359 6.0222 10.1893 5.61108 9.91461C5.19996 9.63991 4.87953 9.24946 4.69031 8.79265C4.50109 8.33583 4.45158 7.83316 4.54804 7.34821C4.64451 6.86326 4.88261 6.4178 5.23224 6.06817C5.58187 5.71854 6.02733 5.48044 6.51228 5.38397C6.99723 5.28751 7.4999 5.33702 7.95672 5.52624C8.41353 5.71546 8.80398 6.03589 9.07868 6.44701C9.35338 6.85814 9.50001 7.34148 9.50001 7.83594C9.49918 8.49872 9.23552 9.13413 8.76686 9.60279C8.2982 10.0715 7.66279 10.3351 7.00001 10.3359Z" fill="black"/>
</svg>
