<svg width="118" height="118" viewBox="0 0 118 118" fill="none" xmlns="http://www.w3.org/2000/svg">
<g filter="url(#filter0_d_1_2608)">
<circle cx="59.8208" cy="54.5512" r="54.5512" fill="white"/>
<circle cx="59.8208" cy="54.5512" r="53.5512" stroke="#2A5F9E" stroke-width="2"/>
</g>
<path d="M50.6711 29.9609C46.2053 29.9609 42.5469 33.6087 42.5469 38.0618C42.5469 39.7873 43.0969 41.3915 44.0297 42.7096L49.679 50.3731C50.4704 51.4065 50.9978 51.2105 51.6558 50.3184L57.8885 41.8175C58.0118 41.5881 58.1153 41.3485 58.1979 41.1014C58.5826 40.1613 58.7959 39.1346 58.7959 38.0618C58.7959 33.6087 55.1375 29.9609 50.6711 29.9609ZM50.6711 33.7567C53.076 33.7567 54.9895 35.6635 54.9895 38.0618C54.9895 40.46 53.076 42.3689 50.6711 42.3689C48.2661 42.3689 46.3533 40.46 46.3533 38.0618C46.3533 35.6642 48.2668 33.7567 50.6711 33.7567Z" fill="#C31162"/>
<path d="M51.2738 21.2148C44.9198 21.2148 38.5652 23.6304 33.7326 28.4623C24.0683 38.1273 24.0683 53.8803 33.7326 63.5447C42.7796 72.5909 57.1344 73.123 66.8601 65.2295L69.2444 67.6144C69.1095 68.0993 69.0782 68.5658 69.1525 68.9817C69.2269 69.3976 69.4052 69.753 69.6751 70.0233L86.9776 87.3258C87.4723 87.8204 88.2426 87.9987 89.1191 87.8217C89.9956 87.6446 90.9065 87.1267 91.6514 86.3817C92.3964 85.6368 92.9143 84.7259 93.0914 83.8494C93.2684 82.9729 93.0901 82.2026 92.5955 81.7079L75.2937 64.4054C75.0233 64.1352 74.6676 63.9567 74.2513 63.8823C73.835 63.808 73.3681 63.8395 72.8828 63.9747L70.4985 61.5898C78.392 51.8641 77.8613 37.5092 68.8143 28.4629C63.9825 23.6298 57.6278 21.2148 51.2738 21.2148ZM51.2738 26.6934C56.2057 26.6934 61.1382 28.583 64.9173 32.3614C66.7139 34.1502 68.1394 36.2762 69.1122 38.6174C70.0849 40.9586 70.5857 43.4689 70.5857 46.0041C70.5857 48.5394 70.0849 51.0497 69.1122 53.3909C68.1394 55.7321 66.7139 57.8581 64.9173 59.6469C63.1285 61.4435 61.0024 62.8691 58.6612 63.8418C56.32 64.8145 53.8097 65.3153 51.2745 65.3153C48.7392 65.3153 46.229 64.8145 43.8878 63.8418C41.5465 62.8691 39.4205 61.4435 37.6317 59.6469C35.8351 57.8581 34.4096 55.7321 33.4368 53.3909C32.4641 51.0497 31.9633 48.5394 31.9633 46.0041C31.9633 43.4689 32.4641 40.9586 33.4368 38.6174C34.4096 36.2762 35.8351 34.1502 37.6317 32.3614C41.4101 28.583 46.342 26.6934 51.2732 26.6934H51.2738Z" fill="#C31162"/>
<path d="M46.3054 55.7689L39.446 58.0204C42.3485 60.8256 46.1536 62.5079 50.1818 62.7669L46.3054 55.7689ZM68.151 48.6014L51.1652 54.1754L55.6357 62.2429C58.0389 61.6094 60.2751 60.4594 62.1884 58.8732C65.3442 56.2757 67.4605 52.6299 68.151 48.6014ZM34.2688 44.019C33.9335 47.3975 34.6161 50.7991 36.229 53.7867L42.5763 51.7044L34.2688 44.019ZM66.4909 37.8623L62.9552 45.0177L68.2331 43.2869C67.9618 41.3935 67.3728 39.5596 66.4909 37.8623Z" fill="#C31162"/>
<defs>
<filter id="filter0_d_1_2608" x="0.269531" y="0" width="117.102" height="117.103" filterUnits="userSpaceOnUse" color-interpolation-filters="sRGB">
<feFlood flood-opacity="0" result="BackgroundImageFix"/>
<feColorMatrix in="SourceAlpha" type="matrix" values="0 0 0 0 0 0 0 0 0 0 0 0 0 0 0 0 0 0 127 0" result="hardAlpha"/>
<feOffset dx="-1" dy="4"/>
<feGaussianBlur stdDeviation="2"/>
<feComposite in2="hardAlpha" operator="out"/>
<feColorMatrix type="matrix" values="0 0 0 0 0 0 0 0 0 0 0 0 0 0 0 0 0 0 0.25 0"/>
<feBlend mode="normal" in2="BackgroundImageFix" result="effect1_dropShadow_1_2608"/>
<feBlend mode="normal" in="SourceGraphic" in2="effect1_dropShadow_1_2608" result="shape"/>
</filter>
</defs>
</svg>
