<svg width="118" height="118" viewBox="0 0 118 118" fill="none" xmlns="http://www.w3.org/2000/svg">
<g filter="url(#filter0_d_1_2643)">
<circle cx="60.3188" cy="54.5512" r="54.5512" fill="white"/>
<circle cx="60.3188" cy="54.5512" r="53.5512" stroke="#2A5F9E" stroke-width="2"/>
</g>
<path d="M58.4205 85.3711C59.5872 85.3442 60.7068 84.9056 61.5812 84.1329C62.4557 83.3601 63.0287 82.3029 63.1988 81.1484H53.457C53.632 82.3343 54.2318 83.4163 55.1448 84.193C56.0578 84.9698 57.2219 85.3884 58.4205 85.3711Z" fill="#C31162"/>
<path d="M85.2937 73.427C83.5078 71.8349 81.9442 70.0096 80.6451 68.0005C79.2268 65.2271 78.3768 62.1984 78.1448 59.0921V49.943C78.1373 48.8317 78.0382 47.7229 77.8485 46.6278C76.3908 46.3365 74.9898 45.8111 73.6999 45.0721C74.1916 46.6553 74.4414 48.3037 74.4407 49.9615V59.1106C74.6677 62.9 75.7101 66.5957 77.4966 69.9451C78.7753 71.9713 80.2925 73.8367 82.0156 75.5013H34.5847C36.3078 73.8367 37.825 71.9713 39.1037 69.9451C40.8902 66.5957 41.9326 62.9 42.1596 59.1106V49.943C42.1498 47.7996 42.5629 45.6753 43.3753 43.6918C44.1877 41.7083 45.3833 39.9045 46.8938 38.3838C48.4042 36.863 50.1999 35.6551 52.1778 34.8292C54.1557 34.0034 56.2771 33.5758 58.4205 33.5709C61.5575 33.5734 64.624 34.5011 67.2363 36.2379C66.9483 35.1803 66.7867 34.0924 66.7547 32.9968V31.83C64.8209 30.8787 62.7435 30.2529 60.606 29.9779V27.6444C60.606 26.9886 60.3455 26.3597 59.8818 25.896C59.4181 25.4324 58.7892 25.1719 58.1335 25.1719C57.4777 25.1719 56.8488 25.4324 56.3852 25.896C55.9215 26.3597 55.661 26.9886 55.661 27.6444V30.0705C50.8748 30.7457 46.4944 33.1296 43.3286 36.7822C40.1628 40.4348 38.4253 45.1094 38.4369 49.943V59.0921C38.205 62.1984 37.3549 65.2271 35.9367 68.0005C34.6604 70.005 33.1219 71.83 31.3621 73.427C31.1646 73.6005 31.0062 73.8142 30.8977 74.0537C30.7891 74.2932 30.7328 74.5531 30.7324 74.816V77.3348C30.7324 77.826 30.9275 78.2971 31.2749 78.6444C31.6222 78.9917 32.0933 79.1868 32.5845 79.1868H84.0714C84.5626 79.1868 85.0337 78.9917 85.381 78.6444C85.7283 78.2971 85.9234 77.826 85.9234 77.3348V74.816C85.9231 74.5531 85.8668 74.2932 85.7582 74.0537C85.6496 73.8142 85.4913 73.6005 85.2937 73.427Z" fill="#C31162"/>
<path d="M80.645 42.2549C85.7593 42.2549 89.9052 38.1089 89.9052 32.9946C89.9052 27.8803 85.7593 23.7344 80.645 23.7344C75.5307 23.7344 71.3848 27.8803 71.3848 32.9946C71.3848 38.1089 75.5307 42.2549 80.645 42.2549Z" fill="#C31162"/>
<defs>
<filter id="filter0_d_1_2643" x="0.767578" y="0" width="117.102" height="117.103" filterUnits="userSpaceOnUse" color-interpolation-filters="sRGB">
<feFlood flood-opacity="0" result="BackgroundImageFix"/>
<feColorMatrix in="SourceAlpha" type="matrix" values="0 0 0 0 0 0 0 0 0 0 0 0 0 0 0 0 0 0 127 0" result="hardAlpha"/>
<feOffset dx="-1" dy="4"/>
<feGaussianBlur stdDeviation="2"/>
<feComposite in2="hardAlpha" operator="out"/>
<feColorMatrix type="matrix" values="0 0 0 0 0 0 0 0 0 0 0 0 0 0 0 0 0 0 0.25 0"/>
<feBlend mode="normal" in2="BackgroundImageFix" result="effect1_dropShadow_1_2643"/>
<feBlend mode="normal" in="SourceGraphic" in2="effect1_dropShadow_1_2643" result="shape"/>
</filter>
</defs>
</svg>
