<svg width="119" height="118" viewBox="0 0 119 118" fill="none" xmlns="http://www.w3.org/2000/svg">
<g filter="url(#filter0_d_1_2635)">
<circle cx="60.4575" cy="54.5512" r="54.5512" fill="white"/>
<circle cx="60.4575" cy="54.5512" r="53.5512" stroke="#2A5F9E" stroke-width="2"/>
</g>
<path d="M52.7268 39.8033C55.2935 39.8033 57.3655 41.7786 57.3655 44.2256C57.3655 46.6726 55.2935 48.6479 52.7268 48.6479C50.16 48.6479 48.0881 46.6726 48.0881 44.2256C48.0881 41.7786 50.16 39.8033 52.7268 39.8033ZM68.1891 60.4408C70.7559 60.4408 72.8278 62.416 72.8278 64.8631C72.8278 67.3101 70.7559 69.2854 68.1891 69.2854C65.6224 69.2854 63.5504 67.3101 63.5504 64.8631C63.5504 62.416 65.6224 60.4408 68.1891 60.4408ZM49.356 69.2854L44.9956 65.1284L71.5599 39.8033L75.9203 43.9603L49.356 69.2854ZM81.0229 27.5682L82.9093 38.9483L93.7639 44.2256L88.2902 54.5443L93.7948 64.8631L82.8475 70.1404L80.961 81.5204L68.9313 79.722L60.3652 87.8886L51.7681 79.6041L39.8312 81.491L37.9138 70.0224L27.1211 64.7746L32.6257 54.4559L27.152 44.2256L38.0066 38.8893L39.893 27.6272L51.8609 29.4846L60.458 21.2148L68.9932 29.3666L81.0229 27.5682ZM85.507 46.7905L77.4666 42.7515L75.9203 34.2312L66.9521 35.4694L60.458 29.4846L53.9638 35.4694L44.9956 34.2312L43.4494 42.7515L35.4089 46.7905L39.4291 54.5443L35.4089 62.2981L43.4494 66.3372L44.9956 74.8575L53.9638 73.6192L60.458 79.6041L66.9521 73.6192L75.9203 74.8575L77.4666 66.3372L85.507 62.2981L81.4868 54.5443L85.507 46.7905Z" fill="#C31162"/>
<defs>
<filter id="filter0_d_1_2635" x="0.90625" y="0" width="117.102" height="117.103" filterUnits="userSpaceOnUse" color-interpolation-filters="sRGB">
<feFlood flood-opacity="0" result="BackgroundImageFix"/>
<feColorMatrix in="SourceAlpha" type="matrix" values="0 0 0 0 0 0 0 0 0 0 0 0 0 0 0 0 0 0 127 0" result="hardAlpha"/>
<feOffset dx="-1" dy="4"/>
<feGaussianBlur stdDeviation="2"/>
<feComposite in2="hardAlpha" operator="out"/>
<feColorMatrix type="matrix" values="0 0 0 0 0 0 0 0 0 0 0 0 0 0 0 0 0 0 0.25 0"/>
<feBlend mode="normal" in2="BackgroundImageFix" result="effect1_dropShadow_1_2635"/>
<feBlend mode="normal" in="SourceGraphic" in2="effect1_dropShadow_1_2635" result="shape"/>
</filter>
</defs>
</svg>
