<svg width="119" height="118" viewBox="0 0 119 118" fill="none" xmlns="http://www.w3.org/2000/svg">
<g filter="url(#filter0_d_1_2662)">
<circle cx="60.4575" cy="54.5512" r="54.5512" fill="white"/>
<circle cx="60.4575" cy="54.5512" r="53.5512" stroke="#2A5F9E" stroke-width="2"/>
</g>
<path d="M63.5949 22.2104C60.322 20.883 56.6709 20.883 53.398 22.2104L30.8195 31.375C29.7288 31.8172 28.7937 32.5802 28.1346 33.5659C27.4754 34.5516 27.1225 35.7147 27.1211 36.9056V67.3058C27.1209 68.498 27.4731 69.6629 28.1324 70.6501C28.7916 71.6374 29.7276 72.4017 30.8195 72.8444L53.398 82.001C56.6709 83.3284 60.322 83.3284 63.5949 82.001L63.9754 81.846C62.5851 81.0999 61.2992 80.1693 60.1515 79.0787C58.8823 79.4577 57.524 79.3919 56.2963 78.8918L55.1354 78.4147C55.0421 78.3816 54.9492 78.3471 54.8569 78.3113L32.2745 69.1547C31.9104 69.0067 31.5984 68.7515 31.3788 68.4219C31.1593 68.0923 31.0423 67.7035 31.043 67.3058V37.1521L56.5355 47.4896V57.8192C57.5277 55.8709 58.8612 54.1374 60.4574 52.6902V47.4896L85.9499 37.1521V54.7776C88.4011 57.851 89.8718 61.7633 89.8718 66.0256V36.9056C89.8712 35.7141 89.5186 34.55 88.8594 33.5636C88.2002 32.5771 87.2647 31.8135 86.1734 31.371L63.5949 22.2104ZM54.8569 25.908C57.1945 24.9601 59.8023 24.9601 62.1399 25.908L82.6319 34.2178L73.6939 37.8359L49.5584 28.055L54.853 25.908H54.8569ZM44.2795 30.1901L68.415 39.975L58.4964 44.0027L34.361 34.2138L44.2795 30.1941V30.1901ZM83.2163 74.3552C85.2946 71.5376 86.243 68.0266 85.8707 64.5286C85.4983 61.0307 83.8329 57.8055 81.2095 55.5023C78.5862 53.199 75.1996 51.9886 71.7314 52.1146C68.2632 52.2407 64.9709 53.6938 62.5169 56.1816C60.063 58.6694 58.6296 62.0071 58.5053 65.5231C58.3809 69.0391 59.5749 72.4723 61.8469 75.1318C64.1188 77.7913 67.3001 79.4797 70.7505 79.8572C74.2009 80.2347 77.6642 79.2732 80.4435 77.1663L90.4444 87.305C90.8121 87.6783 91.311 87.8882 91.8314 87.8886C92.3517 87.8889 92.8509 87.6797 93.2192 87.307C93.5874 86.9342 93.7944 86.4284 93.7948 85.9009C93.7952 85.3733 93.5888 84.8673 93.2211 84.494L83.2202 74.3552H83.2163ZM82.028 66.0256C82.028 68.6618 80.995 71.1901 79.1562 73.0542C77.3174 74.9183 74.8236 75.9655 72.2232 75.9655C69.6228 75.9655 67.1289 74.9183 65.2901 73.0542C63.4514 71.1901 62.4184 68.6618 62.4184 66.0256C62.4184 63.3893 63.4514 60.8611 65.2901 58.997C67.1289 57.1329 69.6228 56.0856 72.2232 56.0856C74.8236 56.0856 77.3174 57.1329 79.1562 58.997C80.995 60.8611 82.028 63.3893 82.028 66.0256Z" fill="#C31162"/>
<defs>
<filter id="filter0_d_1_2662" x="0.90625" y="0" width="117.102" height="117.103" filterUnits="userSpaceOnUse" color-interpolation-filters="sRGB">
<feFlood flood-opacity="0" result="BackgroundImageFix"/>
<feColorMatrix in="SourceAlpha" type="matrix" values="0 0 0 0 0 0 0 0 0 0 0 0 0 0 0 0 0 0 127 0" result="hardAlpha"/>
<feOffset dx="-1" dy="4"/>
<feGaussianBlur stdDeviation="2"/>
<feComposite in2="hardAlpha" operator="out"/>
<feColorMatrix type="matrix" values="0 0 0 0 0 0 0 0 0 0 0 0 0 0 0 0 0 0 0.25 0"/>
<feBlend mode="normal" in2="BackgroundImageFix" result="effect1_dropShadow_1_2662"/>
<feBlend mode="normal" in="SourceGraphic" in2="effect1_dropShadow_1_2662" result="shape"/>
</filter>
</defs>
</svg>
