<svg width="16" height="16" viewBox="0 0 16 16" fill="none" xmlns="http://www.w3.org/2000/svg">
<path d="M15.0727 11.9941L11.6852 8.91414C11.5251 8.76861 11.3147 8.69098 11.0984 8.69767C10.8821 8.70436 10.6769 8.79483 10.5261 8.94998L8.5319 11.0008C8.0519 10.9091 7.0869 10.6083 6.09357 9.61748C5.10023 8.62331 4.7994 7.65581 4.71024 7.17914L6.7594 5.18414C6.91474 5.03342 7.00535 4.82816 7.01204 4.61182C7.01872 4.39547 6.94097 4.18501 6.79524 4.02498L3.71607 0.638311C3.57027 0.477775 3.36763 0.380398 3.1512 0.366861C2.93476 0.353324 2.72157 0.424693 2.5569 0.565811L0.748568 2.11664C0.604494 2.26124 0.518501 2.45369 0.506902 2.65748C0.494402 2.86581 0.256068 7.80081 4.08274 11.6291C7.42107 14.9666 11.6027 15.2108 12.7544 15.2108C12.9227 15.2108 13.0261 15.2058 13.0536 15.2041C13.2573 15.1927 13.4497 15.1064 13.5936 14.9616L15.1436 13.1525C15.2852 12.9883 15.3571 12.7753 15.3439 12.5589C15.3307 12.3425 15.2334 12.1398 15.0727 11.9941Z" fill="black"/>
</svg>
