<svg width="20" height="21" viewBox="0 0 20 21" fill="none" xmlns="http://www.w3.org/2000/svg">
<path d="M10 0.5C7.35774 0.531878 4.83268 1.59568 2.96418 3.46418C1.09568 5.33268 0.0318782 7.85774 0 10.5C0.0318782 13.1423 1.09568 15.6673 2.96418 17.5358C4.83268 19.4043 7.35774 20.4681 10 20.5C12.6423 20.4681 15.1673 19.4043 17.0358 17.5358C18.9043 15.6673 19.9681 13.1423 20 10.5C19.9681 7.85774 18.9043 5.33268 17.0358 3.46418C15.1673 1.59568 12.6423 0.531878 10 0.5ZM15.7143 11.2143H10.7143V16.2143H9.28571V11.2143H4.28571V9.78571H9.28571V4.78571H10.7143V9.78571H15.7143V11.2143Z" fill="#207D66"/>
</svg>
