<svg width="26" height="26" viewBox="0 0 26 26" fill="none" xmlns="http://www.w3.org/2000/svg">
<path d="M22.7285 20.6115C22.1142 20.0231 21.5163 19.4178 20.9355 18.7963C20.4475 18.3006 20.1537 17.9399 20.1537 17.9399L16.4811 16.1864C17.9515 14.519 18.763 12.3726 18.7634 10.1496C18.7634 5.08845 14.6448 0.968994 9.58186 0.968994C4.5189 0.968994 0.40033 5.08845 0.40033 10.1496C0.40033 15.2107 4.5189 19.3301 9.58186 19.3301C11.8943 19.3301 14.0021 18.4645 15.6194 17.0494L17.373 20.7216C17.373 20.7216 17.7338 21.0154 18.2296 21.5033C18.7372 21.9794 19.4048 22.6233 20.0449 23.2961L21.8261 25.1218L22.6183 25.969L25.4003 23.1873L24.553 22.3951C24.0559 21.9072 23.3922 21.2594 22.7285 20.6115ZM9.58186 16.7071C5.96565 16.7071 3.02362 13.7654 3.02362 10.1496C3.02362 6.53373 5.96565 3.59201 9.58186 3.59201C13.1981 3.59201 16.1401 6.53373 16.1401 10.1496C16.1401 13.7654 13.1981 16.7071 9.58186 16.7071Z" fill="#F1F1F1"/>
</svg>
