<svg width="21" height="21" viewBox="0 0 21 21" fill="none" xmlns="http://www.w3.org/2000/svg">
<g filter="url(#filter0_d_304_17252)">
<path d="M18.5945 7.96307C18.7739 7.82303 18.9069 7.62768 18.975 7.40439C19.0431 7.18111 19.0428 6.9411 18.9742 6.71801C18.9055 6.49492 18.7719 6.29994 18.5922 6.16042C18.4124 6.02089 18.1955 5.9438 17.9718 5.93998L13.6276 5.76801C13.6062 5.76647 13.5857 5.75849 13.5686 5.74502C13.5515 5.73156 13.5384 5.7132 13.531 5.69215L12.0299 1.44366C11.9545 1.22751 11.8175 1.04087 11.6374 0.909007C11.4574 0.777141 11.2431 0.706421 11.0235 0.706421C10.8038 0.706421 10.5895 0.777141 10.4095 0.909007C10.2295 1.04087 10.0925 1.22751 10.0171 1.44366L8.52071 5.70732C8.51332 5.72837 8.50027 5.74674 8.48314 5.7602C8.46601 5.77366 8.44553 5.78164 8.42417 5.78319L4.07995 5.95515C3.85628 5.95898 3.63935 6.03606 3.4596 6.17559C3.27984 6.31512 3.14627 6.5101 3.0776 6.73319C3.00894 6.95627 3.00863 7.19629 3.07672 7.41957C3.14481 7.64285 3.27788 7.8382 3.45728 7.97824L6.86508 10.7853C6.88214 10.7993 6.89488 10.8183 6.90175 10.8399C6.90861 10.8615 6.90929 10.8847 6.9037 10.9067L5.73076 15.2614C5.66998 15.4831 5.67586 15.7191 5.74762 15.9372C5.81938 16.1553 5.95352 16.345 6.1318 16.4804C6.31008 16.6158 6.52384 16.6904 6.744 16.694C6.96416 16.6976 7.18003 16.63 7.36225 16.5005L10.9631 13.9716C10.9809 13.9588 11.0019 13.9519 11.0235 13.9519C11.045 13.9519 11.0661 13.9588 11.0838 13.9716L14.6847 16.5005C14.8644 16.6344 15.0795 16.7064 15.3001 16.7064C15.5207 16.7064 15.7358 16.6344 15.9155 16.5005C16.0939 16.3664 16.2281 16.1776 16.2999 15.9603C16.3716 15.7429 16.3773 15.5076 16.3162 15.2866L15.1336 10.9168C15.1273 10.8948 15.1277 10.8714 15.1346 10.8497C15.1415 10.828 15.1546 10.809 15.1722 10.7954L18.5945 7.96307Z" fill="white"/>
</g>
<defs>
<filter id="filter0_d_304_17252" x="0.0258789" y="0.706421" width="20" height="20" filterUnits="userSpaceOnUse" color-interpolation-filters="sRGB">
<feFlood flood-opacity="0" result="BackgroundImageFix"/>
<feColorMatrix in="SourceAlpha" type="matrix" values="0 0 0 0 0 0 0 0 0 0 0 0 0 0 0 0 0 0 127 0" result="hardAlpha"/>
<feOffset dx="-1" dy="2"/>
<feGaussianBlur stdDeviation="1"/>
<feComposite in2="hardAlpha" operator="out"/>
<feColorMatrix type="matrix" values="0 0 0 0 0 0 0 0 0 0 0 0 0 0 0 0 0 0 0.25 0"/>
<feBlend mode="normal" in2="BackgroundImageFix" result="effect1_dropShadow_304_17252"/>
<feBlend mode="normal" in="SourceGraphic" in2="effect1_dropShadow_304_17252" result="shape"/>
</filter>
</defs>
</svg>
