<svg width="30" height="26" viewBox="0 0 30 26" fill="none" xmlns="http://www.w3.org/2000/svg">
<path d="M3.21429 0.598633C1.45179 0.598633 0 2.29238 0 4.34863V21.8486C0 23.9049 1.45179 25.5986 3.21429 25.5986H26.7857C28.5482 25.5986 30 23.9049 30 21.8486V4.34863C30 2.29238 28.5482 0.598633 26.7857 0.598633H3.21429ZM3.21429 3.09863H26.7857C27.3921 3.09863 27.8571 3.64113 27.8571 4.34863V21.8486C27.8571 22.5561 27.3921 23.0986 26.7857 23.0986H3.21429C2.60786 23.0986 2.14286 22.5561 2.14286 21.8486V4.34863C2.14286 3.64113 2.60786 3.09863 3.21429 3.09863ZM18.6493 8.56738C16.5857 8.56738 15.5025 9.75488 15.5025 11.2624C15.5025 13.9874 18.2475 13.6124 18.2475 15.0124C18.2475 15.2524 18.0761 15.7936 16.9425 15.7936C15.8068 15.7936 15.0675 15.3249 15.0675 15.3249L14.7321 17.1224C14.7321 17.1224 15.435 17.6299 16.8418 17.6299C18.2475 17.6299 20.2232 16.3699 20.2232 14.5436C20.2232 12.3461 17.4771 12.1999 17.4771 11.2236C17.4771 10.7261 17.8414 10.3249 18.8164 10.3249C19.4529 10.3249 20.1557 10.9111 20.1557 10.9111L20.4911 8.99738C20.4911 8.99738 19.5579 8.56738 18.6493 8.56738ZM9.84429 8.72363L8.03571 14.8961C8.03571 14.8961 7.94357 14.3636 7.90179 14.0361C6.88071 11.3611 5.22321 10.3636 5.22321 10.3636L6.79714 17.3561H8.94L11.9529 8.72363H9.84429ZM12.7232 8.72363L11.5511 17.3561H13.5268L14.6989 8.72363H12.7232ZM23.3711 8.72363L20.1568 17.3561H22.0982L22.5 16.1461H24.9782L25.1786 17.3561H26.9529L25.4464 8.72363H23.3711ZM3.04607 8.76238C3.04607 8.76238 6.90107 10.1399 7.80107 13.5286L7.13143 9.62238C7.13143 9.62238 6.83893 8.76238 6.06 8.76238H3.04607ZM24.1071 11.2236L24.6761 14.4661H23.0689L24.1071 11.2236Z" fill="black"/>
</svg>
