<svg width="118" height="118" viewBox="0 0 118 118" fill="none" xmlns="http://www.w3.org/2000/svg">
<g filter="url(#filter0_d_1_2619)">
<circle cx="60.3188" cy="54.5512" r="54.5512" fill="white"/>
<circle cx="60.3188" cy="54.5512" r="53.5512" stroke="#2A5F9E" stroke-width="2"/>
</g>
<path d="M60.2859 21.2148C41.884 21.2148 26.9824 36.1498 26.9824 54.5517C26.9824 72.9537 41.884 87.8886 60.2859 87.8886C78.7212 87.8886 93.6561 72.9537 93.6561 54.5517C93.6561 36.1498 78.7212 21.2148 60.2859 21.2148ZM83.3884 41.217H73.554C72.5106 37.088 70.9657 33.1024 68.9535 29.349C75.0346 31.4426 80.1586 35.6555 83.3884 41.217ZM60.3193 28.0156C63.0862 32.016 65.2531 36.4498 66.6866 41.217H53.9519C55.3854 36.4498 57.5523 32.016 60.3193 28.0156ZM34.5166 61.2191C33.9832 59.0855 33.6498 56.8519 33.6498 54.5517C33.6498 52.2515 33.9832 50.0179 34.5166 47.8843H45.7844C45.5177 50.0846 45.3177 52.2848 45.3177 54.5517C45.3177 56.8186 45.5177 59.0188 45.7844 61.2191H34.5166ZM37.2502 67.8864H47.0845C48.1513 72.0536 49.6848 76.054 51.685 79.7544C45.5976 77.6723 40.47 73.4564 37.2502 67.8864ZM47.0845 41.217H37.2502C40.47 35.647 45.5976 31.4312 51.685 29.349C49.6729 33.1024 48.1279 37.088 47.0845 41.217ZM60.3193 81.0878C57.5523 77.0874 55.3854 72.6536 53.9519 67.8864H66.6866C65.2531 72.6536 63.0862 77.0874 60.3193 81.0878ZM68.1201 61.2191H52.5185C52.2184 59.0188 51.9851 56.8186 51.9851 54.5517C51.9851 52.2848 52.2184 50.0512 52.5185 47.8843H68.1201C68.4201 50.0512 68.6535 52.2848 68.6535 54.5517C68.6535 56.8186 68.4201 59.0188 68.1201 61.2191ZM68.9535 79.7544C70.9537 76.054 72.4872 72.0536 73.554 67.8864H83.3884C80.1586 73.448 75.0346 77.6608 68.9535 79.7544ZM74.8542 61.2191C75.1209 59.0188 75.3209 56.8186 75.3209 54.5517C75.3209 52.2848 75.1209 50.0846 74.8542 47.8843H86.122C86.6554 50.0179 86.9888 52.2515 86.9888 54.5517C86.9888 56.8519 86.6554 59.0855 86.122 61.2191H74.8542Z" fill="#C31162"/>
<defs>
<filter id="filter0_d_1_2619" x="0.767578" y="0" width="117.102" height="117.103" filterUnits="userSpaceOnUse" color-interpolation-filters="sRGB">
<feFlood flood-opacity="0" result="BackgroundImageFix"/>
<feColorMatrix in="SourceAlpha" type="matrix" values="0 0 0 0 0 0 0 0 0 0 0 0 0 0 0 0 0 0 127 0" result="hardAlpha"/>
<feOffset dx="-1" dy="4"/>
<feGaussianBlur stdDeviation="2"/>
<feComposite in2="hardAlpha" operator="out"/>
<feColorMatrix type="matrix" values="0 0 0 0 0 0 0 0 0 0 0 0 0 0 0 0 0 0 0.25 0"/>
<feBlend mode="normal" in2="BackgroundImageFix" result="effect1_dropShadow_1_2619"/>
<feBlend mode="normal" in="SourceGraphic" in2="effect1_dropShadow_1_2619" result="shape"/>
</filter>
</defs>
</svg>
